# xmcd
#
# Track frame offsets:
#	150
#	14699
#	29716
#	44174
#
# Disc length: 818 seconds
#
# Revision: 1
# Processed by: cddbd v1.5.2PL0 Copyright (c) Steve Scherf et al.
# Submitted via: audiograbber 1.83.01
#
DISCID=38033004
DTITLE=Sam Hunt - X2C (EP)
DYEAR=2014
DGENRE=Country
TTITLE0=Leave the Night On
TTITLE1=Ex To See
TTITLE2=House Party
TTITLE3=Break Up In a Small Town
EXTD=
EXTT0=
EXTT1=
EXTT2=
EXTT3=
PLAYORDER=
